<svg xmlns="http://www.w3.org/2000/svg" width="800" height="500" viewBox="0 0 800 500" fill="none">
  <defs>
    <linearGradient id="g1" x1="0" y1="0" x2="1" y2="1">
      <stop offset="0%" stop-color="#8b5cf6"/>
      <stop offset="100%" stop-color="#22c55e"/>
    </linearGradient>
    <linearGradient id="g2" x1="0" y1="0" x2="1" y2="1">
      <stop offset="0%" stop-color="#3b82f6"/>
      <stop offset="100%" stop-color="#22d3ee"/>
    </linearGradient>
    <filter id="shadow" x="-20%" y="-20%" width="140%" height="140%">
      <feDropShadow dx="0" dy="8" stdDeviation="12" flood-color="#0f172a" flood-opacity="0.15"/>
    </filter>
  </defs>

  <rect width="800" height="500" rx="24" fill="#0b1020"/>

  <!-- Calendar Panel -->
  <g filter="url(#shadow)">
    <rect x="60" y="70" width="380" height="320" rx="16" fill="#0f172a" stroke="#1f2937"/>
    <rect x="60" y="70" width="380" height="56" rx="16" fill="#111827"/>
    <circle cx="92" cy="98" r="6" fill="#ef4444"/>
    <circle cx="112" cy="98" r="6" fill="#f59e0b"/>
    <circle cx="132" cy="98" r="6" fill="#10b981"/>

    <!-- Calendar grid -->
    <g transform="translate(88,150)">
      <text x="0" y="-12" fill="#94a3b8" font-size="12" font-family="Inter, system-ui">L M M J V S D</text>
      <!-- 5x7 grid -->
      <g fill="#111827" stroke="#1f2937">
        <!-- rows -->
        <g>
          <rect x="0" y="0" width="44" height="36" rx="6"/>
          <rect x="52" y="0" width="44" height="36" rx="6"/>
          <rect x="104" y="0" width="44" height="36" rx="6"/>
          <rect x="156" y="0" width="44" height="36" rx="6"/>
          <rect x="208" y="0" width="44" height="36" rx="6"/>
          <rect x="260" y="0" width="44" height="36" rx="6"/>
          <rect x="312" y="0" width="44" height="36" rx="6"/>
        </g>
        <g transform="translate(0,44)">
          <rect x="0" y="0" width="44" height="36" rx="6"/>
          <rect x="52" y="0" width="44" height="36" rx="6"/>
          <rect x="104" y="0" width="44" height="36" rx="6"/>
          <rect x="156" y="0" width="44" height="36" rx="6"/>
          <rect x="208" y="0" width="44" height="36" rx="6"/>
          <rect x="260" y="0" width="44" height="36" rx="6"/>
          <rect x="312" y="0" width="44" height="36" rx="6"/>
        </g>
        <g transform="translate(0,88)">
          <rect x="0" y="0" width="44" height="36" rx="6"/>
          <rect x="52" y="0" width="44" height="36" rx="6"/>
          <rect x="104" y="0" width="44" height="36" rx="6"/>
          <rect x="156" y="0" width="44" height="36" rx="6"/>
          <rect x="208" y="0" width="44" height="36" rx="6"/>
          <rect x="260" y="0" width="44" height="36" rx="6"/>
          <rect x="312" y="0" width="44" height="36" rx="6"/>
        </g>
        <g transform="translate(0,132)">
          <rect x="0" y="0" width="44" height="36" rx="6"/>
          <rect x="52" y="0" width="44" height="36" rx="6"/>
          <rect x="104" y="0" width="44" height="36" rx="6"/>
          <rect x="156" y="0" width="44" height="36" rx="6"/>
          <rect x="208" y="0" width="44" height="36" rx="6"/>
          <rect x="260" y="0" width="44" height="36" rx="6"/>
          <rect x="312" y="0" width="44" height="36" rx="6"/>
        </g>
      </g>
      <!-- Completed dots -->
      <circle cx="26" cy="18" r="4" fill="url(#g1)"/>
      <circle cx="78" cy="62" r="4" fill="#22c55e"/>
      <circle cx="130" cy="106" r="4" fill="#3b82f6"/>
      <circle cx="182" cy="150" r="4" fill="#f59e0b"/>
    </g>
  </g>

  <!-- Checklist Panel -->
  <g filter="url(#shadow)">
    <rect x="460" y="110" width="280" height="260" rx="16" fill="#0f172a" stroke="#1f2937"/>
    <text x="486" y="144" fill="#94a3b8" font-size="14" font-family="Inter, system-ui">Lista de hábitos</text>

    <g transform="translate(486,170)">
      <rect width="220" height="42" rx="10" fill="#111827" stroke="#1f2937"/>
      <circle cx="18" cy="21" r="8" fill="#0b1020" stroke="#334155"/>
      <path d="M14 21l3 3 6-6" stroke="#22c55e" stroke-width="2" fill="none"/>
      <text x="38" y="26" fill="#e2e8f0" font-size="13" font-family="Inter, system-ui">Beber 2L de agua</text>
    </g>

    <g transform="translate(486,222)">
      <rect width="220" height="42" rx="10" fill="#111827" stroke="#1f2937"/>
      <circle cx="18" cy="21" r="8" fill="#0b1020" stroke="#334155"/>
      <text x="38" y="26" fill="#e2e8f0" font-size="13" font-family="Inter, system-ui">Correr 30 minutos</text>
    </g>

    <g transform="translate(486,274)">
      <rect width="220" height="42" rx="10" fill="#111827" stroke="#1f2937"/>
      <circle cx="18" cy="21" r="8" fill="#0b1020" stroke="#334155"/>
      <text x="38" y="26" fill="#e2e8f0" font-size="13" font-family="Inter, system-ui">Leer 20 páginas</text>
    </g>

    <!-- Progress ring -->
    <g transform="translate(586,344)">
      <circle cx="0" cy="0" r="30" stroke="#1f2937" stroke-width="10" fill="none"/>
      <circle cx="0" cy="0" r="30" stroke="url(#g2)" stroke-width="10" fill="none" stroke-linecap="round" stroke-dasharray="188" stroke-dashoffset="56"/>
      <text x="0" y="5" text-anchor="middle" fill="#e2e8f0" font-size="14" font-family="Inter, system-ui">70%</text>
    </g>
  </g>

  <!-- Accent shapes -->
  <circle cx="760" cy="60" r="60" fill="#22c55e" opacity="0.08"/>
  <circle cx="40" cy="460" r="80" fill="#8b5cf6" opacity="0.08"/>
</svg>
